<svg data-v-423bf9ae="" xmlns="http://www.w3.org/2000/svg" viewBox="0 0 264 90" class="iconLeft"><!----><!----><!----><g data-v-423bf9ae="" id="55154ba6-ab53-4eb3-94a7-37fe6ba2d01a" fill="black" transform="matrix(4.095562979965875,0,0,4.095562979965875,63.63110009818317,4.924915389887779)"><path d="M3.81 8.48L3.81 8.48Q4.23 8.86 4.74 9.23Q5.25 9.60 5.76 9.98Q6.27 10.36 6.69 10.75L6.69 10.75Q7.64 11.63 7.64 12.70L7.64 12.70Q7.64 14.01 6.64 14.90Q5.64 15.78 4.00 15.78Q2.37 15.78 1.48 15.04Q0.60 14.29 0.60 13.27L0.60 13.27Q0.60 12.52 1.05 12.05Q1.50 11.58 2.21 11.58L2.21 11.58Q2.41 11.58 2.59 11.63L2.59 11.63Q2.16 12.29 2.16 13.04Q2.16 13.79 2.67 14.32Q3.19 14.85 4.23 14.85L4.23 14.85Q4.97 14.85 5.55 14.40Q6.13 13.94 6.13 13.13L6.13 13.13Q6.13 12.60 5.78 12.09Q5.43 11.58 4.91 11.19Q4.40 10.79 3.78 10.31Q3.16 9.83 2.65 9.38Q2.13 8.93 1.78 8.29Q1.43 7.64 1.43 6.94L1.43 6.94Q1.43 5.61 2.33 4.84Q3.23 4.06 4.94 4.06L4.94 4.06Q6.33 4.06 7.12 4.79Q7.91 5.53 7.91 6.32Q7.91 7.11 7.48 7.62Q7.06 8.12 6.31 8.12L6.31 8.12Q6.06 8.12 5.82 8.06L5.82 8.06Q6.51 7.34 6.51 6.52Q6.51 5.71 6.01 5.30Q5.50 4.89 4.73 4.89Q3.95 4.89 3.40 5.33Q2.86 5.78 2.86 6.69Q2.86 7.60 3.81 8.48ZM16.41 9.34L16.41 9.34Q16.41 9.98 16.14 11.61Q15.86 13.24 15.86 13.99Q15.86 14.73 16.04 15.06Q16.23 15.39 16.66 15.62L16.66 15.62Q16.48 15.64 16.14 15.64L16.14 15.64Q15.19 15.64 14.79 15.28Q14.39 14.92 14.39 14L14.39 14Q14.39 13.48 14.67 11.91Q14.95 10.33 14.95 9.59L14.95 9.59Q14.95 8.67 14.39 8.67L14.39 8.67Q13.50 8.67 12.54 10.25Q11.58 11.83 11.58 14.06L11.58 14.06Q11.58 14.94 11.66 15.43L11.66 15.43Q11.30 15.46 11.23 15.46L11.23 15.46Q10.00 15.46 10.00 14.25L10.00 14.25Q10.00 13.97 10.29 12.10Q10.58 10.22 10.58 9.11Q10.58 7.99 10.35 7.06L10.35 7.06Q11.17 7.38 11.50 7.97Q11.83 8.57 11.83 9.33Q11.83 10.09 11.66 11.10L11.66 11.10Q12.12 9.52 13.11 8.44Q14.10 7.35 14.95 7.35L14.95 7.35Q16.41 7.35 16.41 9.34ZM22.23 8.08L22.23 8.08Q21.39 8.08 20.81 9.04Q20.23 10.01 20.03 11.31L20.03 11.31L20.43 11.31Q21.17 11.31 21.71 11.10Q22.26 10.89 22.55 10.56L22.55 10.56Q23.11 9.91 23.11 9.10L23.11 9.10Q23.11 8.64 22.90 8.36Q22.68 8.08 22.23 8.08ZM24.21 13.75Q23.56 14.80 22.79 15.22Q22.02 15.64 21.01 15.64Q19.99 15.64 19.24 14.74Q18.48 13.85 18.48 12.22L18.48 12.22Q18.48 10.37 19.47 8.92L19.47 8.92Q19.96 8.22 20.75 7.78Q21.55 7.35 22.50 7.35L22.50 7.35Q24.60 7.35 24.60 9.38L24.60 9.38Q24.60 10.60 23.65 11.29Q22.71 11.98 21.46 11.98L21.46 11.98Q20.64 11.98 19.98 11.83L19.98 11.83Q19.96 11.97 19.96 12.26L19.96 12.26Q19.96 14.74 21.43 14.74L21.43 14.74Q22.82 14.74 23.69 13.37L23.69 13.37Q24.21 13.44 24.21 13.75L24.21 13.75ZM28.25 9.95Q27.85 10.65 27.63 11.39Q27.41 12.12 27.41 12.80Q27.41 13.47 27.71 13.94Q28.01 14.41 28.57 14.41L28.57 14.41Q29.36 14.41 30.04 13.55Q30.73 12.68 31.10 11.46Q31.47 10.23 31.47 9.19Q31.47 8.15 31.39 7.48L31.39 7.48Q31.72 7.45 31.81 7.45L31.81 7.45Q33.00 7.45 33.00 8.67L33.00 8.67Q33.00 8.93 32.66 10.83Q32.33 12.73 32.33 13.87Q32.33 15.01 32.76 15.89L32.76 15.89Q31.88 15.71 31.48 15.11Q31.08 14.52 31.08 13.40L31.08 13.40Q31.08 13.20 31.14 12.64L31.14 12.64Q30.76 13.97 29.81 14.78Q28.85 15.60 27.94 15.60Q27.02 15.60 26.46 14.90Q25.90 14.21 25.90 12.99Q25.90 11.76 26.36 10.59Q26.81 9.42 27.73 8.57Q28.64 7.71 29.78 7.71L29.78 7.71Q30.27 7.71 30.86 7.91L30.86 7.91Q30.03 8.12 29.34 8.68Q28.66 9.24 28.25 9.95ZM36.75 11.10Q37.18 9.10 38.01 8.21Q38.84 7.32 39.62 7.32Q40.40 7.32 40.84 7.80Q41.29 8.27 41.29 9.14Q41.29 10.00 40.80 10.68Q40.31 11.35 39.45 11.68L39.45 11.68L39.62 12.19Q40.08 13.64 40.96 15.05Q41.85 16.46 42.39 16.98L42.39 16.98Q42.01 17.11 41.67 17.11Q41.33 17.11 40.98 16.93Q40.63 16.76 40.37 16.54Q40.11 16.32 39.82 15.86Q39.54 15.39 39.37 15.06Q39.20 14.74 38.95 14.08L38.95 14.08Q38.68 13.40 38.21 12.01L38.21 12.01Q38.02 12.03 37.67 12.03L37.67 12.03Q37.59 11.96 37.59 11.58L37.59 11.58Q38.22 11.56 38.71 11.33Q39.20 11.09 39.45 10.72L39.45 10.72Q39.98 9.98 39.98 9.23L39.98 9.23Q39.98 8.85 39.81 8.60Q39.63 8.36 39.30 8.36L39.30 8.36Q38.71 8.36 38.11 9.14Q37.51 9.91 37.09 11.27Q36.68 12.63 36.68 14.11L36.68 14.11Q36.68 14.94 36.76 15.43L36.76 15.43Q36.43 15.46 36.39 15.46L36.39 15.46Q35.73 15.46 35.41 15.18Q35.10 14.90 35.10 14.30Q35.10 13.71 35.34 12.01L35.34 12.01Q36.09 6.80 36.09 4.10L36.09 4.10Q36.09 2.88 35.92 2.46L35.92 2.46Q36.74 2.76 37.07 3.33Q37.39 3.91 37.39 4.91L37.39 4.91Q37.39 5.61 37.12 7.85Q36.85 10.09 36.75 11.10L36.75 11.10ZM43.46 7.50L43.46 7.50Q44.80 7.70 45.96 7.70Q47.11 7.70 47.87 7.63L47.87 7.63Q48.08 7.20 48.17 6.83L48.17 6.83Q48.80 7.36 48.80 7.99Q48.80 8.62 48.24 9.48Q47.67 10.33 46.42 11.80Q45.18 13.26 44.55 14.11L44.55 14.11Q46.23 14.15 46.84 14.15Q47.45 14.15 48.31 14.03L48.31 14.03Q48.38 14.38 48.38 14.76L48.38 14.76Q48.38 15.53 47.32 15.53L47.32 15.53Q47.07 15.53 45.86 15.41Q44.65 15.30 43.76 15.30Q42.88 15.30 42.01 15.54L42.01 15.54Q42.21 14.49 42.95 14.22L42.95 14.22Q45.72 11.35 47.31 8.69L47.31 8.69Q46.58 8.72 45.52 8.86Q44.46 8.99 44.25 8.99L44.25 8.99Q43.34 8.99 43.34 8.08L43.34 8.08Q43.34 7.81 43.46 7.50Z"></path></g><!----><g data-v-423bf9ae="" id="413e5fe5-b7ee-40bf-b753-dd8345d1b331" transform="matrix(2.8125,0,0,2.8125,-21.194407999515533,0)" stroke="none" fill="black"><path d="M18.396 26.495L7.807 15.905 18.432 5.28l.707.707-9.918 9.918 9.882 9.883z"></path><path d="M23.194 1v4.194H19V1h4.194m1-1H18v6.194h6.194V0zM23.194 26.806V31H19v-4.194h4.194m1-1H18V32h6.194v-6.194z"></path></g><!----></svg>